<svg xmlns="http://www.w3.org/2000/svg" xmlns:xlink="http://www.w3.org/1999/xlink"
    aria-hidden="true" style="position: absolute; width: 0px; height: 0px; overflow: hidden;">
    <defs>
        <!-- FILTERs:::  -->
    </defs>
    <!-- Symbols -->
    <symbol id="icon-calendar-ltr-regular" viewBox="0 0 32 32" data-icontype="regular">
        <path
            d="M10.333 17.333a1.667 1.667 0 0 0 0-3.334 1.667 1.667 0 0 0 0 3.334zm7.334-1.666a1.667 1.667 0 0 1-3.334 0 1.667 1.667 0 0 1 3.334 0zm4 1.666a1.667 1.667 0 0 0 0-3.334 1.667 1.667 0 0 0 0 3.334zM12 21a1.667 1.667 0 0 1-3.334 0A1.667 1.667 0 0 1 12 21zm4 1.667a1.667 1.667 0 0 0 0-3.334 1.667 1.667 0 0 0 0 3.334zM4 8.167A4.167 4.167 0 0 1 8.167 4h15.667a4.167 4.167 0 0 1 4.167 4.167v15.667a4.167 4.167 0 0 1-4.167 4.167H8.167A4.167 4.167 0 0 1 4 23.834V8.167zm4.167-2.5a2.5 2.5 0 0 0-2.5 2.5v1.167h20.667V8.167a2.5 2.5 0 0 0-2.5-2.5H8.167zm-2.5 18.166a2.5 2.5 0 0 0 2.5 2.5h15.667a2.5 2.5 0 0 0 2.5-2.5V11H5.667v12.833z"></path>
    </symbol>
    <symbol id="icon-calendar-ltr-filled" viewBox="0 0 32 32" data-icontype="filled">
        <path
            d="M4 8.167A4.167 4.167 0 0 1 8.167 4h15.667a4.167 4.167 0 0 1 4.167 4.167v1.167h-24V8.167zM4 11v12.833A4.167 4.167 0 0 0 8.167 28h15.667a4.167 4.167 0 0 0 4.167-4.167V11h-24zm8 4.667a1.667 1.667 0 0 1-3.334 0 1.667 1.667 0 0 1 3.334 0zm4 1.666a1.667 1.667 0 0 1 0-3.334 1.667 1.667 0 0 1 0 3.334zm7.333-1.666a1.667 1.667 0 0 1-3.334 0 1.667 1.667 0 0 1 3.334 0zm-13 7a1.667 1.667 0 0 1 0-3.334 1.667 1.667 0 0 1 0 3.334zM17.667 21a1.667 1.667 0 0 1-3.334 0 1.667 1.667 0 0 1 3.334 0z"></path>
    </symbol>
    <symbol id="icon-video-clip-filled" viewBox="0 0 32 32" data-icontype="filled">
        <path
            d="M2.667 8.333A4.333 4.333 0 0 1 7 4h18a4.333 4.333 0 0 1 4.333 4.333v15.333A4.333 4.333 0 0 1 25 27.999H7a4.333 4.333 0 0 1-4.333-4.333V8.333zm10 4.179v6.975a1 1 0 0 0 1.48.877l6.381-3.488a1.001 1.001 0 0 0 .005-1.752l-.005-.003-6.381-3.487a1 1 0 0 0-1.48.877z"></path>
    </symbol>
    <symbol id="icon-video-clip-regular" viewBox="0 0 32 32" data-icontype="regular">
        <path
            d="M12.667 12.513v6.975a1 1 0 0 0 1.48.877l6.381-3.488a1.001 1.001 0 0 0 .005-1.752l-.005-.003-6.381-3.488a1 1 0 0 0-1.48.877v.001zM7 4a4.333 4.333 0 0 0-4.333 4.333v15.333A4.333 4.333 0 0 0 7 27.999h18a4.333 4.333 0 0 0 4.333-4.333V8.333A4.333 4.333 0 0 0 25 4H7zM4.667 8.333A2.334 2.334 0 0 1 7 6h18a2.334 2.334 0 0 1 2.333 2.333v15.333A2.333 2.333 0 0 1 25 25.999H7a2.333 2.333 0 0 1-2.333-2.333V8.333z"></path>
    </symbol>
    <symbol id="icon-video-play-pause-regular" viewBox="0 0 32 32" data-icontype="regular">
        <path
            d="M16 10.333A2.334 2.334 0 0 1 18.333 8h2a2.334 2.334 0 0 1 2.333 2.333v11.333a2.333 2.333 0 0 1-2.333 2.333h-2A2.333 2.333 0 0 1 16 21.666v-5.507a2.313 2.313 0 0 1-1.11 1.884l-.01.006-8.667 5.269c-1.556.944-3.547-.175-3.547-1.995V10.671c0-1.829 2.009-2.947 3.564-1.981l8.669 5.383a2.313 2.313 0 0 1 1.1 1.877v-5.617zM18.333 10a.333.333 0 0 0-.333.333v11.333c0 .184.149.333.333.333h2a.333.333 0 0 0 .333-.333V10.333a.333.333 0 0 0-.333-.333h-2zm5.667.333A2.334 2.334 0 0 1 26.333 8h2a2.334 2.334 0 0 1 2.333 2.333v11.333a2.333 2.333 0 0 1-2.333 2.333h-2A2.333 2.333 0 0 1 24 21.666V10.333zM26.333 10a.333.333 0 0 0-.333.333v11.333c0 .184.149.333.333.333h2a.333.333 0 0 0 .333-.333V10.333a.333.333 0 0 0-.333-.333h-2zm-21.666.672v10.653a.333.333 0 0 0 .508.284l-.001.001 8.669-5.269a.333.333 0 0 0 .004-.567l-.001-.001-8.669-5.383a.333.333 0 0 0-.509.283z"></path>
    </symbol>
    <symbol id="icon-video-play-pause-filled" viewBox="0 0 32 32" data-icontype="filled">
        <path
            d="M16 10.333A2.334 2.334 0 0 1 18.333 8h2a2.334 2.334 0 0 1 2.333 2.333v11.333a2.333 2.333 0 0 1-2.333 2.333h-2A2.333 2.333 0 0 1 16 21.666v-5.507a2.313 2.313 0 0 1-1.11 1.884l-.01.006-8.667 5.269c-1.556.944-3.547-.175-3.547-1.995V10.671c0-1.829 2.009-2.947 3.564-1.981l8.669 5.383a2.313 2.313 0 0 1 1.1 1.877v-5.617zm8 0A2.334 2.334 0 0 1 26.333 8h2a2.334 2.334 0 0 1 2.333 2.333v11.333a2.333 2.333 0 0 1-2.333 2.333h-2A2.333 2.333 0 0 1 24 21.666V10.333z"></path>
    </symbol>
    <symbol id="frosted-schema" viewBox="0 0 300 300">
        <filter id="noiseFilter">
            <feTurbulence baseFrequency="1.3" numOctaves="2" result="turb" stitchTiles="stitch"
                type="fractalNoise"></feTurbulence>
            <feColorMatrix in="turb" type="saturate" values="0.10"></feColorMatrix>

        </filter>
        <rect width='100%' height='100%' filter='url(#noiseFilter)' />
    </symbol>
    <symbol id="hamburger-inactive" viewBox="0 0 32 32">
        <path
            d="M26.49 10.84h-20.98c-0.84 0-1.51-0.68-1.51-1.51s0.68-1.51 1.51-1.51h20.97c0.84 0 1.51 0.68 1.51 1.51s-0.68 1.51-1.51 1.51z"></path>
        <path
            d="M26.49 17.23h-20.98c-0.84 0-1.51-0.68-1.51-1.51s0.68-1.51 1.51-1.51h20.97c0.84 0 1.51 0.68 1.51 1.51s-0.68 1.51-1.51 1.51z"></path>
        <path
            d="M26.49 24.19h-20.98c-0.84 0-1.51-0.68-1.51-1.51s0.68-1.51 1.51-1.51h20.97c0.84 0 1.51 0.68 1.51 1.51s-0.68 1.51-1.51 1.51z"></path>
    </symbol>
    <symbol id="hamburger" viewBox="0 0 32 32">
        <path
            d="M4.1 25.1c-0.3-0.78 0.090-1.66 0.88-1.95l9.31-3.55c1.11-0.42 2.32-0.42 3.43 0l9.31 3.55c0.78 0.3 1.17 1.17 0.88 1.95-0.3 0.78-1.17 1.17-1.95 0.88l-9.31-3.55c-0.41-0.16-0.86-0.16-1.27 0l-9.31 3.55c-0.34 0.13-1.51 0.28-1.95-0.88z"></path>
        <path
            d="M4.1 18.71c-0.3-0.78 0.090-1.66 0.88-1.95l9.31-3.55c1.11-0.42 2.32-0.42 3.43 0l9.31 3.55c0.78 0.3 1.17 1.17 0.88 1.95-0.3 0.78-1.17 1.17-1.95 0.88l-9.31-3.55c-0.41-0.16-0.86-0.16-1.27 0l-9.31 3.55c-0.34 0.13-1.51 0.28-1.95-0.88z"></path>
        <path
            d="M4.1 11.74c-0.3-0.78 0.090-1.66 0.88-1.95l9.31-3.55c1.11-0.42 2.32-0.42 3.43 0l9.31 3.55c0.78 0.3 1.17 1.17 0.88 1.95-0.3 0.78-1.17 1.17-1.95 0.88l-9.31-3.55c-0.41-0.16-0.86-0.16-1.27 0l-9.31 3.55c-0.34 0.13-1.51 0.28-1.95-0.88z"></path>
    </symbol>
    <symbol id="icon-ms-teams" viewBox="0 0 34 32">
        <path fill="#5059c9" style="fill: #5059c9"
            d="M23.994 12h8.886c0.839 0 1.52 0.681 1.52 1.52 0 0 0 0 0 0v8.094c0 3.085-2.501 5.586-5.586 5.586v0h-0.026c-3.085 0-5.587-2.5-5.587-5.586 0-0 0-0.001 0-0.001v-8.819c0-0.439 0.356-0.794 0.794-0.794v0z"></path>
        <path fill="#5059c9" style="fill: #5059c9"
            d="M33.6 6.8c0 1.988-1.612 3.6-3.6 3.6s-3.6-1.612-3.6-3.6c0-1.988 1.612-3.6 3.6-3.6s3.6 1.612 3.6 3.6z"></path>
        <path fill="#7b83eb" style="fill: #7b83eb"
            d="M24 5.2c0 2.872-2.328 5.2-5.2 5.2s-5.2-2.328-5.2-5.2c0-2.872 2.328-5.2 5.2-5.2s5.2 2.328 5.2 5.2z"></path>
        <path fill="#7b83eb" style="fill: #7b83eb"
            d="M25.734 12h-14.667c-0.829 0.021-1.486 0.709-1.466 1.538v9.231c-0.116 4.978 3.822 9.109 8.8 9.23 4.978-0.122 8.916-4.253 8.8-9.23v-9.231c0.019-0.829-0.637-1.518-1.466-1.538z"></path>
        <path fill="#000" style="fill: #000)" opacity="0.1"
            d="M19.2 12v12.936c-0.004 0.593-0.363 1.126-0.912 1.352-0.175 0.074-0.362 0.112-0.552 0.112h-7.432c-0.104-0.264-0.2-0.528-0.28-0.8-0.28-0.918-0.423-1.872-0.424-2.832v-9.232c-0.019-0.828 0.636-1.515 1.464-1.536h8.136z"></path>
        <path fill="#000" style="fill: #000)" opacity="0.2"
            d="M18.4 12v13.736c-0 0.19-0.038 0.377-0.112 0.552-0.226 0.549-0.759 0.908-1.352 0.912h-6.256c-0.136-0.264-0.264-0.528-0.376-0.8s-0.2-0.528-0.28-0.8c-0.28-0.918-0.423-1.872-0.424-2.832v-9.232c-0.019-0.828 0.636-1.515 1.464-1.536h7.336z"></path>
        <path fill="#000" style="fill: #000)" opacity="0.2"
            d="M18.4 12v12.136c-0.006 0.806-0.658 1.458-1.464 1.464h-6.912c-0.28-0.918-0.423-1.872-0.424-2.832v-9.232c-0.019-0.828 0.636-1.515 1.464-1.536h7.336z"></path>
        <path fill="#000" style="fill: #000)" opacity="0.2"
            d="M17.6 12v12.136c-0.006 0.806-0.658 1.458-1.464 1.464h-6.112c-0.28-0.918-0.423-1.872-0.424-2.832v-9.232c-0.019-0.828 0.636-1.515 1.464-1.536h6.536z"></path>
        <path fill="#000" style="fill: #000)" opacity="0.1"
            d="M19.2 7.864v2.52c-0.136 0.008-0.264 0.016-0.4 0.016s-0.264-0.008-0.4-0.016c-0.27-0.018-0.538-0.061-0.8-0.128-1.62-0.384-2.958-1.52-3.6-3.056-0.11-0.258-0.196-0.526-0.256-0.8h3.992c0.807 0.003 1.461 0.657 1.464 1.464z"></path>
        <path fill="#000" style="fill: #000)" opacity="0.2"
            d="M18.4 8.664v1.72c-0.27-0.018-0.538-0.061-0.8-0.128-1.62-0.384-2.958-1.52-3.6-3.056h2.936c0.807 0.003 1.461 0.657 1.464 1.464z"></path>
        <path fill="#000" style="fill: #000)" opacity="0.2"
            d="M17.6 8.664v1.592c-1.62-0.384-2.958-1.52-3.6-3.056h2.136c0.807 0.003 1.461 0.657 1.464 1.464z"></path>
        <path fill="#000" style="fill: #000)"
            d="M1.466 7.2h14.667c0.81 0 1.466 0.657 1.466 1.466v14.667c0 0.81-0.657 1.466-1.466 1.466h-14.667c-0.81 0-1.466-0.657-1.466-1.466v-14.667c0-0.81 0.657-1.466 1.466-1.466z"></path>
        <path fill="#fff" style="fill: var(--color4, #fff)"
            d="M12.659 12.782h-2.932v7.984h-1.868v-7.984h-2.918v-1.549h7.718v1.549z"></path>
    </symbol>
    <symbol id="ms-teams-2" viewBox="0 0 48 48">
        <path
            d="M31.993 19H43.1a1.9 1.9 0 0 1 1.9 1.9v10.117A6.983 6.983 0 0 1 38.017 38h-.033A6.983 6.983 0 0 1 31 31.017V19.993a.993.993 0 0 1 .993-.993z"
            fill="#5059c9" />
        <circle cx="39.5" cy="12.5" r="4.5" fill="#5059c9" />
        <circle cx="25.5" cy="10.5" r="6.5" fill="#7b83eb" />
        <path
            d="M34.167 19H15.833A1.88 1.88 0 0 0 14 20.923v11.539A11.279 11.279 0 0 0 25 44a11.279 11.279 0 0 0 11-11.538V20.923A1.88 1.88 0 0 0 34.167 19z"
            fill="#7b83eb" />
        <path
            d="M26 19v16.17a1.841 1.841 0 0 1-1.14 1.69 1.772 1.772 0 0 1-.69.14h-9.29c-.13-.33-.25-.66-.35-1a12.179 12.179 0 0 1-.53-3.54V20.92A1.877 1.877 0 0 1 15.83 19z"
            opacity=".1" />
        <path
            d="M25 19v17.17a1.772 1.772 0 0 1-.14.69A1.841 1.841 0 0 1 23.17 38h-7.82c-.17-.33-.33-.66-.47-1s-.25-.66-.35-1a12.179 12.179 0 0 1-.53-3.54V20.92A1.877 1.877 0 0 1 15.83 19z"
            opacity=".2" />
        <path
            d="M25 19v15.17A1.844 1.844 0 0 1 23.17 36h-8.64a12.179 12.179 0 0 1-.53-3.54V20.92A1.877 1.877 0 0 1 15.83 19z"
            opacity=".2" />
        <path
            d="M24 19v15.17A1.844 1.844 0 0 1 22.17 36h-7.64a12.179 12.179 0 0 1-.53-3.54V20.92A1.877 1.877 0 0 1 15.83 19z"
            opacity=".2" />
        <path
            d="M26 13.83v3.15c-.17.01-.33.02-.5.02s-.33-.01-.5-.02a5.489 5.489 0 0 1-1-.16A6.5 6.5 0 0 1 19.5 13a5.556 5.556 0 0 1-.32-1h4.99A1.837 1.837 0 0 1 26 13.83z"
            opacity=".1" />
        <path
            d="M25 14.83v2.15a5.489 5.489 0 0 1-1-.16A6.5 6.5 0 0 1 19.5 13h3.67A1.837 1.837 0 0 1 25 14.83z"
            opacity=".2" />
        <path
            d="M25 14.83v2.15a5.489 5.489 0 0 1-1-.16A6.5 6.5 0 0 1 19.5 13h3.67A1.837 1.837 0 0 1 25 14.83z"
            opacity=".2" />
        <path d="M24 14.83v1.99A6.5 6.5 0 0 1 19.5 13h2.67A1.837 1.837 0 0 1 24 14.83z"
            opacity=".2" />
        <rect x="2" y="13" width="22" height="22" rx="1.833" fill="url(#gradient)" style="fill:#5a62c3" />
        <path d="M17.824 19.978h-3.665v9.98h-2.335v-9.98H8.176v-1.936h9.648z" fill="#fff" />
    </symbol>

    <view id="frosted-glass-view" viewBox="0 0 300 300" /><!-- This ID used here is what you'll use
    in your CSS! -->

    <use xlink:href="#frosted-schema" width="100%" height="100%" x="0" y="0" id="frosted-glass"></use>

</svg>