<svg xmlns="http://www.w3.org/2000/svg" aria-hidden="true"
    style="position: absolute; width: 0px; height: 0px; overflow: hidden;">
    <defs>
        <symbol id="icon-calendar-ltr-regular" viewBox="0 0 32 32" data-icontype="regular">
            <path
                d="M10.333 17.333a1.667 1.667 0 0 0 0-3.334 1.667 1.667 0 0 0 0 3.334zm7.334-1.666a1.667 1.667 0 0 1-3.334 0 1.667 1.667 0 0 1 3.334 0zm4 1.666a1.667 1.667 0 0 0 0-3.334 1.667 1.667 0 0 0 0 3.334zM12 21a1.667 1.667 0 0 1-3.334 0A1.667 1.667 0 0 1 12 21zm4 1.667a1.667 1.667 0 0 0 0-3.334 1.667 1.667 0 0 0 0 3.334zM4 8.167A4.167 4.167 0 0 1 8.167 4h15.667a4.167 4.167 0 0 1 4.167 4.167v15.667a4.167 4.167 0 0 1-4.167 4.167H8.167A4.167 4.167 0 0 1 4 23.834V8.167zm4.167-2.5a2.5 2.5 0 0 0-2.5 2.5v1.167h20.667V8.167a2.5 2.5 0 0 0-2.5-2.5H8.167zm-2.5 18.166a2.5 2.5 0 0 0 2.5 2.5h15.667a2.5 2.5 0 0 0 2.5-2.5V11H5.667v12.833z"></path>
        </symbol>
        <symbol id="icon-calendar-ltr-filled" viewBox="0 0 32 32" data-icontype="filled">
            <path
                d="M4 8.167A4.167 4.167 0 0 1 8.167 4h15.667a4.167 4.167 0 0 1 4.167 4.167v1.167h-24V8.167zM4 11v12.833A4.167 4.167 0 0 0 8.167 28h15.667a4.167 4.167 0 0 0 4.167-4.167V11h-24zm8 4.667a1.667 1.667 0 0 1-3.334 0 1.667 1.667 0 0 1 3.334 0zm4 1.666a1.667 1.667 0 0 1 0-3.334 1.667 1.667 0 0 1 0 3.334zm7.333-1.666a1.667 1.667 0 0 1-3.334 0 1.667 1.667 0 0 1 3.334 0zm-13 7a1.667 1.667 0 0 1 0-3.334 1.667 1.667 0 0 1 0 3.334zM17.667 21a1.667 1.667 0 0 1-3.334 0 1.667 1.667 0 0 1 3.334 0z"></path>
        </symbol>
        <symbol id="icon-video-clip-filled" viewBox="0 0 32 32" data-icontype="filled">
            <path
                d="M2.667 8.333A4.333 4.333 0 0 1 7 4h18a4.333 4.333 0 0 1 4.333 4.333v15.333A4.333 4.333 0 0 1 25 27.999H7a4.333 4.333 0 0 1-4.333-4.333V8.333zm10 4.179v6.975a1 1 0 0 0 1.48.877l6.381-3.488a1.001 1.001 0 0 0 .005-1.752l-.005-.003-6.381-3.487a1 1 0 0 0-1.48.877z"></path>
        </symbol>
        <symbol id="icon-video-clip-regular" viewBox="0 0 32 32" data-icontype="regular">
            <path
                d="M12.667 12.513v6.975a1 1 0 0 0 1.48.877l6.381-3.488a1.001 1.001 0 0 0 .005-1.752l-.005-.003-6.381-3.488a1 1 0 0 0-1.48.877v.001zM7 4a4.333 4.333 0 0 0-4.333 4.333v15.333A4.333 4.333 0 0 0 7 27.999h18a4.333 4.333 0 0 0 4.333-4.333V8.333A4.333 4.333 0 0 0 25 4H7zM4.667 8.333A2.334 2.334 0 0 1 7 6h18a2.334 2.334 0 0 1 2.333 2.333v15.333A2.333 2.333 0 0 1 25 25.999H7a2.333 2.333 0 0 1-2.333-2.333V8.333z"></path>
        </symbol>
        <symbol id="icon-video-play-pause-regular" viewBox="0 0 32 32" data-icontype="regular">
            <path
                d="M16 10.333A2.334 2.334 0 0 1 18.333 8h2a2.334 2.334 0 0 1 2.333 2.333v11.333a2.333 2.333 0 0 1-2.333 2.333h-2A2.333 2.333 0 0 1 16 21.666v-5.507a2.313 2.313 0 0 1-1.11 1.884l-.01.006-8.667 5.269c-1.556.944-3.547-.175-3.547-1.995V10.671c0-1.829 2.009-2.947 3.564-1.981l8.669 5.383a2.313 2.313 0 0 1 1.1 1.877v-5.617zM18.333 10a.333.333 0 0 0-.333.333v11.333c0 .184.149.333.333.333h2a.333.333 0 0 0 .333-.333V10.333a.333.333 0 0 0-.333-.333h-2zm5.667.333A2.334 2.334 0 0 1 26.333 8h2a2.334 2.334 0 0 1 2.333 2.333v11.333a2.333 2.333 0 0 1-2.333 2.333h-2A2.333 2.333 0 0 1 24 21.666V10.333zM26.333 10a.333.333 0 0 0-.333.333v11.333c0 .184.149.333.333.333h2a.333.333 0 0 0 .333-.333V10.333a.333.333 0 0 0-.333-.333h-2zm-21.666.672v10.653a.333.333 0 0 0 .508.284l-.001.001 8.669-5.269a.333.333 0 0 0 .004-.567l-.001-.001-8.669-5.383a.333.333 0 0 0-.509.283z"></path>
        </symbol>
        <symbol id="icon-video-play-pause-filled" viewBox="0 0 32 32" data-icontype="filled">
            <path
                d="M16 10.333A2.334 2.334 0 0 1 18.333 8h2a2.334 2.334 0 0 1 2.333 2.333v11.333a2.333 2.333 0 0 1-2.333 2.333h-2A2.333 2.333 0 0 1 16 21.666v-5.507a2.313 2.313 0 0 1-1.11 1.884l-.01.006-8.667 5.269c-1.556.944-3.547-.175-3.547-1.995V10.671c0-1.829 2.009-2.947 3.564-1.981l8.669 5.383a2.313 2.313 0 0 1 1.1 1.877v-5.617zm8 0A2.334 2.334 0 0 1 26.333 8h2a2.334 2.334 0 0 1 2.333 2.333v11.333a2.333 2.333 0 0 1-2.333 2.333h-2A2.333 2.333 0 0 1 24 21.666V10.333z"></path>
        </symbol>
        <symbol id="frosted-glass" viewBox="0 0 100 100">
            <filter id='noiseFilter'>
              <feTurbulence type='fractalNoise' baseFrequency='100' numOctaves='3' stitchTiles='stitch' />
            </filter>
            <rect width='100%' height='100%' filter='url(#noiseFilter)' />
          </symbol>
    </defs>
</svg>